<svg width="100" height="134" viewBox="0 0 100 134" fill="none" xmlns="http://www.w3.org/2000/svg">
<path d="M72.9167 16.6667H83.3333C92.526 16.6667 100 24.1406 100 33.3333V116.667C100 125.859 92.526 133.333 83.3333 133.333H16.6667C7.47396 133.333 0 125.859 0 116.667V33.3333C0 24.1406 7.47396 16.6667 16.6667 16.6667H27.0833H29.5833C31.5104 7.16146 39.9219 0 50 0C60.0781 0 68.4896 7.16146 70.4167 16.6667H72.9167ZM16.6667 29.1667C14.375 29.1667 12.5 31.0417 12.5 33.3333V116.667C12.5 118.958 14.375 120.833 16.6667 120.833H83.3333C85.625 120.833 87.5 118.958 87.5 116.667V33.3333C87.5 31.0417 85.625 29.1667 83.3333 29.1667H79.1667V35.4167C79.1667 38.8802 76.3802 41.6667 72.9167 41.6667H50H27.0833C23.6198 41.6667 20.8333 38.8802 20.8333 35.4167V29.1667H16.6667ZM50 27.0833C51.6576 27.0833 53.2473 26.4249 54.4194 25.2528C55.5915 24.0806 56.25 22.4909 56.25 20.8333C56.25 19.1757 55.5915 17.586 54.4194 16.4139C53.2473 15.2418 51.6576 14.5833 50 14.5833C48.3424 14.5833 46.7527 15.2418 45.5806 16.4139C44.4085 17.586 43.75 19.1757 43.75 20.8333C43.75 22.4909 44.4085 24.0806 45.5806 25.2528C46.7527 26.4249 48.3424 27.0833 50 27.0833Z" fill="#3F4967"/>
</svg>
