<svg width="150" height="90" viewBox="0 0 150 90" fill="none" xmlns="http://www.w3.org/2000/svg">
<path d="M45 0C20.1562 0 0 20.1562 0 45C0 69.8438 20.1562 90 45 90H105C129.844 90 150 69.8438 150 45C150 20.1562 129.844 0 105 0H45ZM116.25 24.375C118.736 24.375 121.121 25.3627 122.879 27.1209C124.637 28.879 125.625 31.2636 125.625 33.75C125.625 36.2364 124.637 38.621 122.879 40.3791C121.121 42.1373 118.736 43.125 116.25 43.125C113.764 43.125 111.379 42.1373 109.621 40.3791C107.863 38.621 106.875 36.2364 106.875 33.75C106.875 31.2636 107.863 28.879 109.621 27.1209C111.379 25.3627 113.764 24.375 116.25 24.375ZM91.875 56.25C91.875 53.7636 92.8627 51.379 94.6209 49.6209C96.379 47.8627 98.7636 46.875 101.25 46.875C103.736 46.875 106.121 47.8627 107.879 49.6209C109.637 51.379 110.625 53.7636 110.625 56.25C110.625 58.7364 109.637 61.121 107.879 62.8791C106.121 64.6373 103.736 65.625 101.25 65.625C98.7636 65.625 96.379 64.6373 94.6209 62.8791C92.8627 61.121 91.875 58.7364 91.875 56.25ZM39.375 31.875C39.375 28.7578 41.8828 26.25 45 26.25C48.1172 26.25 50.625 28.7578 50.625 31.875V39.375H58.125C61.2422 39.375 63.75 41.8828 63.75 45C63.75 48.1172 61.2422 50.625 58.125 50.625H50.625V58.125C50.625 61.2422 48.1172 63.75 45 63.75C41.8828 63.75 39.375 61.2422 39.375 58.125V50.625H31.875C28.7578 50.625 26.25 48.1172 26.25 45C26.25 41.8828 28.7578 39.375 31.875 39.375H39.375V31.875Z" fill="#3F4967"/>
</svg>
