<svg width="150" height="120" viewBox="0 0 150 120" fill="none" xmlns="http://www.w3.org/2000/svg">
<path d="M75 0C79.1484 0 82.5 3.35156 82.5 7.5V22.5H110.625C119.953 22.5 127.5 30.0469 127.5 39.375V103.125C127.5 112.453 119.953 120 110.625 120H39.375C30.0469 120 22.5 112.453 22.5 103.125V39.375C22.5 30.0469 30.0469 22.5 39.375 22.5H67.5V7.5C67.5 3.35156 70.8516 0 75 0ZM48.75 90C46.6875 90 45 91.6875 45 93.75C45 95.8125 46.6875 97.5 48.75 97.5H56.25C58.3125 97.5 60 95.8125 60 93.75C60 91.6875 58.3125 90 56.25 90H48.75ZM71.25 90C69.1875 90 67.5 91.6875 67.5 93.75C67.5 95.8125 69.1875 97.5 71.25 97.5H78.75C80.8125 97.5 82.5 95.8125 82.5 93.75C82.5 91.6875 80.8125 90 78.75 90H71.25ZM93.75 90C91.6875 90 90 91.6875 90 93.75C90 95.8125 91.6875 97.5 93.75 97.5H101.25C103.312 97.5 105 95.8125 105 93.75C105 91.6875 103.312 90 101.25 90H93.75ZM61.875 60C61.875 57.5136 60.8873 55.129 59.1291 53.3709C57.371 51.6127 54.9864 50.625 52.5 50.625C50.0136 50.625 47.629 51.6127 45.8709 53.3709C44.1127 55.129 43.125 57.5136 43.125 60C43.125 62.4864 44.1127 64.871 45.8709 66.6291C47.629 68.3873 50.0136 69.375 52.5 69.375C54.9864 69.375 57.371 68.3873 59.1291 66.6291C60.8873 64.871 61.875 62.4864 61.875 60ZM97.5 69.375C99.9864 69.375 102.371 68.3873 104.129 66.6291C105.887 64.871 106.875 62.4864 106.875 60C106.875 57.5136 105.887 55.129 104.129 53.3709C102.371 51.6127 99.9864 50.625 97.5 50.625C95.0136 50.625 92.629 51.6127 90.8709 53.3709C89.1127 55.129 88.125 57.5136 88.125 60C88.125 62.4864 89.1127 64.871 90.8709 66.6291C92.629 68.3873 95.0136 69.375 97.5 69.375ZM11.25 52.5H15V97.5H11.25C5.03906 97.5 0 92.4609 0 86.25V63.75C0 57.5391 5.03906 52.5 11.25 52.5ZM138.75 52.5C144.961 52.5 150 57.5391 150 63.75V86.25C150 92.4609 144.961 97.5 138.75 97.5H135V52.5H138.75Z" fill="#3F4967"/>
</svg>
