<svg width="150" height="120" viewBox="0 0 150 120" fill="none" xmlns="http://www.w3.org/2000/svg">
<path d="M37.5 15C37.5 6.72656 44.2266 0 52.5 0H135C143.273 0 150 6.72656 150 15V82.5C150 90.7734 143.273 97.5 135 97.5H78.9375C76.1719 91.5234 71.9297 86.3672 66.6562 82.5H90V75C90 70.8516 93.3516 67.5 97.5 67.5H112.5C116.648 67.5 120 70.8516 120 75V82.5H135V15H52.5V26.5078C48.0938 23.9531 42.9609 22.5 37.5 22.5V15ZM37.5 30C40.4547 30 43.3806 30.582 46.1104 31.7127C48.8402 32.8434 51.3206 34.5008 53.4099 36.5901C55.4992 38.6794 57.1566 41.1598 58.2873 43.8896C59.418 46.6194 60 49.5453 60 52.5C60 55.4547 59.418 58.3806 58.2873 61.1104C57.1566 63.8402 55.4992 66.3206 53.4099 68.4099C51.3206 70.4992 48.8402 72.1566 46.1104 73.2873C43.3806 74.418 40.4547 75 37.5 75C34.5453 75 31.6194 74.418 28.8896 73.2873C26.1598 72.1566 23.6794 70.4992 21.5901 68.4099C19.5008 66.3206 17.8434 63.8402 16.7127 61.1104C15.582 58.3806 15 55.4547 15 52.5C15 49.5453 15.582 46.6194 16.7127 43.8896C17.8434 41.1598 19.5008 38.6794 21.5901 36.5901C23.6794 34.5008 26.1598 32.8434 28.8896 31.7127C31.6194 30.582 34.5453 30 37.5 30ZM31.2422 82.5H43.7344C61.0078 82.5 75 96.4922 75 113.742C75 117.187 72.2109 120 68.7422 120H6.25781C2.78906 120 0 117.211 0 113.742C0 96.4922 13.9922 82.5 31.2422 82.5Z" fill="#3F4967"/>
</svg>
