<svg width="120" height="120" viewBox="0 0 120 120" fill="none" xmlns="http://www.w3.org/2000/svg">
<path d="M18.4275 1.17463C16.2011 -0.559652 13.0372 -0.348726 11.0217 1.64335L1.64718 11.0178C-0.344902 13.0099 -0.555828 16.1738 1.15502 18.4237L19.904 42.7973C20.9586 44.1801 22.6226 45.0003 24.3569 45.0003H37.0358L62.5813 70.5458C59.1362 77.3423 60.2377 85.8731 65.9327 91.5446L92.1812 117.793C95.1108 120.723 99.8683 120.723 102.798 117.793L117.797 102.794C120.727 99.8645 120.727 95.1069 117.797 92.1774L91.5485 65.9289C85.8769 60.2573 77.3461 59.1324 70.5496 62.5775L45.0042 37.032V24.3765C45.0042 22.6188 44.1839 20.9782 42.8011 19.9236L18.4275 1.17463ZM4.67045 92.8336C1.69405 95.81 0.00664133 99.8645 0.00664133 104.083C0.00664133 112.872 7.13125 119.996 15.9198 119.996C20.1383 119.996 24.1928 118.309 27.1692 115.332L54.777 87.7245C52.949 82.8264 52.6678 77.5063 53.9333 72.4676L39.4732 58.0074L4.67045 92.8336ZM120 33.751C120 31.2901 119.742 28.8997 119.25 26.6029C118.688 23.9781 115.477 23.2984 113.578 25.1967L98.6028 40.1725C97.8997 40.8756 96.9388 41.274 95.9545 41.274H82.5021C80.4397 41.274 78.7523 39.5866 78.7523 37.5242V24.0484C78.7523 23.064 79.1507 22.1032 79.8538 21.4001L94.8295 6.42434C96.7279 4.526 96.0482 1.31524 93.4234 0.752776C91.1032 0.260616 88.7127 0.0028173 86.2519 0.0028173C67.6201 0.0028173 52.5037 15.1192 52.5037 33.751V33.9384L72.4948 53.9295C80.9319 51.7968 90.2595 54.0467 96.8685 60.6557L100.548 64.3352C112.032 58.9449 120 47.2736 120 33.751ZM13.1309 101.247C13.1309 99.7555 13.7235 98.3248 14.7783 97.27C15.8332 96.2151 17.2638 95.6225 18.7556 95.6225C20.2474 95.6225 21.678 96.2151 22.7329 97.27C23.7877 98.3248 24.3803 99.7555 24.3803 101.247C24.3803 102.739 23.7877 104.17 22.7329 105.224C21.678 106.279 20.2474 106.872 18.7556 106.872C17.2638 106.872 15.8332 106.279 14.7783 105.224C13.7235 104.17 13.1309 102.739 13.1309 101.247Z" fill="#3F4967"/>
</svg>
